{
    "asset" : {
        "generator" : "Khronos glTF Blender I/O v1.4.40",
        "version" : "2.0"
    },
    "scene" : 0,
    "scenes" : [
        {
            "name" : "Scene",
            "nodes" : [
                0
            ]
        }
    ],
    "nodes" : [
        {
            "mesh" : 0,
            "name" : "barrel drum.001",
            "scale" : [
                1,
                1.5,
                1
            ]
        }
    ],
    "meshes" : [
        {
            "name" : "Cylinder",
            "primitives" : [
                {
                    "attributes" : {
                        "POSITION" : 0,
                        "NORMAL" : 1,
                        "TEXCOORD_0" : 2
                    },
                    "indices" : 3
                }
            ]
        }
    ],
    "accessors" : [
        {
            "bufferView" : 0,
            "componentType" : 5126,
            "count" : 2948,
            "max" : [
                1.054402232170105,
                1.0208380222320557,
                1.0544021129608154
            ],
            "min" : [
                -1.054402232170105,
                -1,
                -1.0544021129608154
            ],
            "type" : "VEC3"
        },
        {
            "bufferView" : 1,
            "componentType" : 5126,
            "count" : 2948,
            "type" : "VEC3"
        },
        {
            "bufferView" : 2,
            "componentType" : 5126,
            "count" : 2948,
            "type" : "VEC2"
        },
        {
            "bufferView" : 3,
            "componentType" : 5123,
            "count" : 4956,
            "type" : "SCALAR"
        }
    ],
    "bufferViews" : [
        {
            "buffer" : 0,
            "byteLength" : 35376,
            "byteOffset" : 0
        },
        {
            "buffer" : 0,
            "byteLength" : 35376,
            "byteOffset" : 35376
        },
        {
            "buffer" : 0,
            "byteLength" : 23584,
            "byteOffset" : 70752
        },
        {
            "buffer" : 0,
            "byteLength" : 9912,
            "byteOffset" : 94336
        }
    ],
    "buffers" : [
        {
            "byteLength" : 104248,
            "uri" : "object_barrel.bin"
        }
    ]
}
